<svg version="1.1" id="Layer_1" xmlns="http://www.w3.org/2000/svg" xmlns:xlink="http://www.w3.org/1999/xlink" x="0px" y="0px"
	 width="100%" viewBox="0 0 1447 1447" enable-background="new 0 0 1447 1447" xml:space="preserve">
<path fill="#FFFFFF" opacity="1.000000" stroke="none" 
	d="
M987.000000,1448.000000 
	C658.000061,1448.000000 329.500122,1448.000000 1.000132,1448.000000 
	C1.000088,965.666809 1.000088,483.333618 1.000044,1.000326 
	C483.333099,1.000218 965.666199,1.000218 1447.999512,1.000109 
	C1447.999634,483.333008 1447.999634,965.666016 1447.999756,1447.999512 
	C1294.500000,1448.000000 1141.000000,1448.000000 987.000000,1448.000000 
M725.500061,187.915833 
	C712.711975,188.574249 699.912292,189.060684 687.138245,189.926620 
	C659.878723,191.774506 633.043030,196.446106 606.488647,202.738068 
	C560.256836,213.692535 516.239136,230.476990 474.258484,252.759766 
	C426.840149,277.928741 384.150208,309.507233 345.821198,346.978241 
	C323.998596,368.312347 304.183533,391.438416 286.173523,416.112823 
	C247.092407,469.655487 218.630112,528.330444 200.453354,592.060486 
	C188.955978,632.371643 182.195328,673.502625 180.305817,715.296387 
	C178.862411,747.222839 179.743805,779.160095 183.771576,810.994202 
	C187.726624,842.253662 193.918945,872.995300 203.028259,903.116272 
	C220.618576,961.280640 246.912369,1015.225769 282.190125,1064.764404 
	C314.496399,1110.130371 352.695862,1149.852173 396.827637,1183.755737 
	C450.583557,1225.052979 510.002594,1255.463013 574.918518,1275.136841 
	C624.744934,1290.237549 675.748230,1297.738770 727.703674,1298.718384 
	C742.980164,1299.006470 758.354248,1298.441772 773.562683,1296.995972 
	C796.035339,1294.859497 818.614197,1292.730957 840.770935,1288.584961 
	C911.285767,1275.389282 976.659546,1248.853760 1036.944458,1209.955933 
	C1080.586914,1181.796387 1119.413452,1148.043091 1153.690918,1108.991211 
	C1183.169434,1075.406860 1208.231812,1038.839233 1228.859619,999.232971 
	C1245.282593,967.700195 1258.498535,934.854492 1268.618042,900.761719 
	C1281.404907,857.681885 1288.884399,813.660278 1290.742920,768.812012 
	C1292.031982,737.705750 1291.065796,706.613647 1287.203247,675.612000 
	C1282.830566,640.514648 1275.453857,606.128418 1264.581421,572.515808 
	C1246.717285,517.287598 1220.867188,466.037140 1186.899536,418.944092 
	C1158.204712,379.161377 1124.828491,343.727753 1086.857056,312.689545 
	C1050.712402,283.144623 1011.421997,258.565216 969.018188,238.980011 
	C939.638794,225.410416 909.368896,214.295547 878.068665,206.089890 
	C828.393616,193.067123 777.885498,186.777710 725.500061,187.915833 
z"/>
<path fill="#AFAFAF" opacity="1.000000" stroke="none" 
	d="
M726.000000,187.913025 
	C777.885498,186.777710 828.393616,193.067123 878.068665,206.089890 
	C909.368896,214.295547 939.638794,225.410416 969.018188,238.980011 
	C1011.421997,258.565216 1050.712402,283.144623 1086.857056,312.689545 
	C1124.828491,343.727753 1158.204712,379.161377 1186.899536,418.944092 
	C1220.867188,466.037140 1246.717285,517.287598 1264.581421,572.515808 
	C1275.453857,606.128418 1282.830566,640.514648 1287.203247,675.612000 
	C1291.065796,706.613647 1292.031982,737.705750 1290.742920,768.812012 
	C1288.884399,813.660278 1281.404907,857.681885 1268.618042,900.761719 
	C1258.498535,934.854492 1245.282593,967.700195 1228.859619,999.232971 
	C1208.231812,1038.839233 1183.169434,1075.406860 1153.690918,1108.991211 
	C1119.413452,1148.043091 1080.586914,1181.796387 1036.944458,1209.955933 
	C976.659546,1248.853760 911.285767,1275.389282 840.770935,1288.584961 
	C818.614197,1292.730957 796.035339,1294.859497 773.562683,1296.995972 
	C758.354248,1298.441772 742.980164,1299.006470 727.703674,1298.718384 
	C675.748230,1297.738770 624.744934,1290.237549 574.918518,1275.136841 
	C510.002594,1255.463013 450.583557,1225.052979 396.827637,1183.755737 
	C352.695862,1149.852173 314.496399,1110.130371 282.190125,1064.764404 
	C246.912369,1015.225769 220.618576,961.280640 203.028259,903.116272 
	C193.918945,872.995300 187.726624,842.253662 183.771576,810.994202 
	C179.743805,779.160095 178.862411,747.222839 180.305817,715.296387 
	C182.195328,673.502625 188.955978,632.371643 200.453354,592.060486 
	C218.630112,528.330444 247.092407,469.655487 286.173523,416.112823 
	C304.183533,391.438416 323.998596,368.312347 345.821198,346.978241 
	C384.150208,309.507233 426.840149,277.928741 474.258484,252.759766 
	C516.239136,230.476990 560.256836,213.692535 606.488647,202.738068 
	C633.043030,196.446106 659.878723,191.774506 687.138245,189.926620 
	C699.912292,189.060684 712.711975,188.574249 726.000000,187.913025 
M792.990173,860.057068 
	C795.155518,860.101746 797.320923,860.185242 799.486267,860.185486 
	C857.151367,860.192871 914.816589,860.252136 972.481201,860.083435 
	C977.412292,860.069031 979.036133,861.139160 978.975891,866.372253 
	C978.686279,891.534912 978.814941,916.702820 978.849792,941.868713 
	C978.868835,955.643433 986.323425,965.507996 999.301392,969.125244 
	C1010.520325,972.252197 1022.310791,967.134888 1029.188477,956.233521 
	C1030.168335,954.680359 1031.459839,953.323853 1032.901855,951.504578 
	C1034.702637,954.321350 1035.912598,956.500488 1037.391724,958.478394 
	C1043.941895,967.237366 1052.797241,971.385864 1063.550903,969.605835 
	C1074.661865,967.766724 1082.298462,960.992432 1085.288452,950.020569 
	C1086.534668,945.447327 1086.595337,940.461792 1086.621582,935.660583 
	C1086.747559,912.512329 1086.677979,889.362976 1086.677856,866.214050 
	C1086.677856,864.423645 1086.677856,862.633301 1086.677856,860.156006 
	C1118.587646,860.156006 1149.966187,860.156006 1181.830444,860.156006 
	C1181.830444,846.842102 1181.603149,834.206177 1181.944458,821.585693 
	C1182.077637,816.659302 1180.946899,815.038086 1175.675903,815.092346 
	C1147.846191,815.378784 1120.012085,815.227905 1092.179443,815.228699 
	C1090.396851,815.228760 1088.614258,815.228699 1086.829102,815.228699 
	C1086.829102,769.169006 1086.829102,723.711670 1086.829102,678.240051 
	C1087.756714,678.240051 1088.166992,678.110046 1088.368530,678.260193 
	C1090.367554,679.748291 1092.342163,681.269592 1094.304443,682.806274 
	C1116.764404,700.394714 1141.666626,713.135071 1169.400269,719.979187 
	C1184.135254,723.615540 1198.303589,709.362976 1195.276611,694.478638 
	C1193.005859,683.313538 1185.154175,678.536499 1175.024902,675.570862 
	C1143.242310,666.265442 1117.028320,648.436523 1096.076416,622.847473 
	C1087.833618,612.780334 1087.924194,612.847412 1075.230713,616.348450 
	C1036.398071,627.059204 998.808167,623.433655 962.405273,606.375732 
	C943.432129,597.485168 927.245361,584.857117 913.010559,569.073792 
	C918.143005,562.223694 920.910706,554.675964 918.442017,546.168701 
	C915.762756,536.936035 909.073425,531.871277 899.780884,530.288086 
	C891.540771,528.884216 882.419800,533.700806 877.648254,541.855530 
	C868.061218,558.239685 856.265930,572.821472 841.548645,584.809265 
	C805.714111,613.997925 764.750122,626.096008 718.725281,621.152100 
	C693.752136,618.469482 671.013306,609.731567 649.991333,596.314453 
	C627.966125,582.257019 610.783508,563.527100 597.526184,541.081543 
	C591.695740,531.210205 580.020264,527.484863 569.832703,532.046326 
	C559.202942,536.805786 553.775330,547.937500 557.298340,558.766052 
	C558.562744,562.652405 561.041077,566.143738 562.378967,570.157654 
	C549.345825,583.946899 534.670471,595.632141 517.692139,604.187012 
	C477.425079,624.476379 435.741699,627.880859 392.777466,614.035034 
	C389.080475,612.843628 386.919617,613.201355 384.463226,616.598267 
	C375.041962,629.626770 363.760742,640.913330 350.860779,650.550049 
	C334.380096,662.861694 316.016418,671.213318 296.354797,677.068298 
	C283.875671,680.784424 277.439484,692.743774 280.986481,704.389893 
	C284.784851,716.861511 295.938751,723.012085 308.764038,719.479858 
	C336.254852,711.908569 361.150909,699.239685 383.293427,681.219055 
	C384.864685,679.940308 386.594452,678.856384 388.708862,677.356812 
	C388.708862,723.879639 388.708862,769.396118 388.708862,815.411865 
	C350.003845,815.411865 311.756836,815.411865 273.367798,815.411865 
	C273.367798,830.487366 273.367798,845.059387 273.367798,860.294312 
	C312.038177,860.294312 350.410736,860.294312 389.142914,860.294312 
	C389.142914,862.769714 389.142517,864.585327 389.142975,866.401001 
	C389.148987,891.725159 389.082733,917.049683 389.190979,942.373413 
	C389.247253,955.538269 397.483124,965.774780 410.392670,969.217896 
	C421.449768,972.166931 433.293640,966.944031 439.782440,956.273376 
	C440.682922,954.792542 441.646942,953.350342 443.040619,951.173157 
	C444.486450,953.225037 445.466553,954.485840 446.309448,955.832581 
	C453.598846,967.479004 465.146484,972.336182 477.392059,968.875610 
	C489.455536,965.466492 496.977417,954.965942 496.992126,941.355530 
	C497.019287,916.197937 497.122833,891.039124 496.878387,865.883850 
	C496.831970,861.109558 498.396698,860.082947 502.849335,860.103088 
	C538.169189,860.262695 573.490112,860.215027 608.810669,860.181458 
	C633.799683,860.157715 658.788574,860.056580 683.945923,860.907776 
	C683.960388,887.725952 683.960938,914.544189 683.995239,941.362366 
	C684.012390,954.749939 691.363159,965.263489 703.096313,968.794617 
	C715.237610,972.448608 726.938660,967.776489 734.436523,956.323486 
	C735.456360,954.765686 736.643311,953.317322 737.736755,951.840027 
	C738.620850,952.456482 738.983643,952.586853 739.146912,952.843994 
	C739.947144,954.104431 740.676514,955.409607 741.463257,956.678955 
	C746.343384,964.552612 753.339722,969.335876 762.612610,969.865540 
	C778.955627,970.798950 791.818909,958.461487 791.891846,942.013794 
	C792.013000,914.699036 792.010681,887.383728 792.990173,860.057068 
M993.582397,521.075623 
	C979.813354,534.895325 974.171326,551.560303 977.349609,570.730408 
	C982.149658,599.681213 1009.253845,619.811890 1038.662354,616.831909 
	C1066.750488,613.985840 1089.672363,588.483337 1088.598877,560.063293 
	C1087.725342,536.932434 1076.225952,519.723145 1055.182739,510.183411 
	C1032.896484,500.080109 1012.335632,504.631653 993.582397,521.075623 
M388.826233,574.553772 
	C395.509735,597.982483 414.498230,614.746948 436.705627,616.825134 
	C477.378571,620.631409 507.769318,584.255493 496.758453,544.945557 
	C489.763733,519.973755 461.883209,501.792969 436.815338,505.294739 
	C403.929260,509.888672 380.839935,541.378540 388.826233,574.553772 
M779.064575,523.453430 
	C765.066162,508.823639 748.184509,502.908264 728.024475,505.973022 
	C699.341370,510.333466 677.250305,540.805603 682.365601,569.344482 
	C688.364380,602.812500 718.209961,623.028992 751.208496,615.248047 
	C771.993286,610.346985 785.664856,596.903625 791.615417,576.438721 
	C797.284851,556.940857 792.889648,539.317566 779.064575,523.453430 
M529.854065,1048.122070 
	C533.280334,1040.294556 532.640503,1037.077637 526.233093,1030.783203 
	C530.296692,1027.368164 531.659363,1023.123901 529.849854,1017.985840 
	C527.971558,1012.652466 523.628784,1010.649780 518.625488,1010.345337 
	C511.835999,1009.932312 504.997589,1010.008667 498.202393,1010.335999 
	C497.145599,1010.386963 495.431366,1012.843445 495.350037,1014.263611 
	C495.027588,1019.894897 495.237762,1025.556274 495.241455,1031.206543 
	C495.246307,1038.638184 495.242615,1046.069824 495.242615,1054.034302 
	C503.294220,1054.034302 510.725616,1054.004272 518.156616,1054.045288 
	C522.780090,1054.070923 526.566162,1052.418091 529.854065,1048.122070 
M409.808960,1011.400024 
	C401.319427,1010.834473 392.829895,1010.268860 384.408813,1009.707825 
	C384.408813,1025.307007 384.408813,1039.532227 384.408813,1054.074585 
	C389.980255,1054.074585 395.127838,1054.085449 400.275330,1054.072510 
	C412.755859,1054.041138 418.061493,1049.707275 420.615845,1037.476929 
	C423.044830,1025.846802 419.105621,1015.783997 409.808960,1011.400024 
M732.949707,1055.005859 
	C737.449280,1051.456787 742.774536,1055.317749 747.964844,1053.450562 
	C747.964844,1040.461914 747.973206,1027.527832 747.952026,1014.593750 
	C747.949951,1013.308655 747.768311,1012.023743 747.660706,1010.616211 
	C744.692078,1010.616211 742.019897,1010.616211 738.956665,1010.616211 
	C738.956665,1015.153381 738.956665,1019.231323 738.956665,1023.860352 
	C733.471985,1020.207092 728.172241,1019.785400 723.059265,1022.862061 
	C717.009338,1026.502563 714.502075,1036.742920 717.140015,1045.490845 
	C719.082214,1051.931519 724.090820,1055.139893 732.949707,1055.005859 
M957.711243,1054.319336 
	C961.706421,1054.010742 965.702942,1053.717285 969.695801,1053.381226 
	C970.539612,1053.310303 971.398499,1052.864990 972.201843,1052.968628 
	C974.943054,1053.322754 977.662598,1053.844727 980.577332,1054.334106 
	C980.577332,1039.032959 980.577332,1024.810181 980.577332,1010.498169 
	C977.624939,1010.498169 975.067322,1010.498169 972.055908,1010.498169 
	C972.055908,1012.994019 972.055847,1015.126099 972.055847,1017.258240 
	C972.055847,1019.311646 972.055908,1021.365051 972.055908,1023.706299 
	C962.620605,1019.363220 956.573792,1020.350159 952.378845,1026.466431 
	C946.310242,1035.314575 948.341125,1047.432129 957.711243,1054.319336 
M846.373474,1054.079834 
	C849.439880,1054.460327 849.947449,1052.714844 849.881409,1050.153442 
	C849.762939,1045.558960 849.848022,1040.959229 849.848022,1035.672363 
	C856.578125,1035.672363 862.619080,1035.672363 868.528198,1035.672363 
	C868.528198,1032.736450 868.528198,1030.511963 868.528198,1027.779541 
	C862.184998,1027.779541 856.265686,1027.779541 850.185913,1027.779541 
	C850.185913,1024.367432 850.185913,1021.475952 850.185913,1017.842163 
	C857.527771,1017.842163 864.558533,1017.842163 871.914856,1017.842163 
	C871.766479,1014.849243 871.656250,1012.624573 871.533447,1010.146973 
	C861.942078,1010.146973 852.966797,1010.233643 843.994690,1010.101624 
	C840.697571,1010.053162 840.172852,1011.754150 840.189148,1014.478577 
	C840.256897,1025.794067 840.206665,1037.110352 840.227783,1048.426270 
	C840.231079,1050.190552 840.380249,1051.954468 840.478760,1054.081299 
	C842.508118,1054.081299 843.986938,1054.081299 846.373474,1054.079834 
M647.870239,1044.669189 
	C653.347961,1055.115967 653.347961,1055.115967 663.043884,1053.442383 
	C660.194946,1048.427612 657.851990,1043.263794 654.554749,1038.806030 
	C651.549133,1034.742432 652.361694,1032.247559 655.835510,1029.296875 
	C658.224182,1027.267822 660.076416,1024.607056 662.281555,1022.100098 
	C651.079773,1017.858093 648.444214,1028.167480 641.724060,1033.139038 
	C641.724060,1024.890015 641.724060,1017.677734 641.724060,1010.511414 
	C638.881348,1010.511414 636.632629,1010.511414 633.820190,1010.511414 
	C633.820190,1025.065308 633.820190,1039.269409 633.820190,1053.735596 
	C636.414917,1053.735596 638.956055,1053.735596 641.410522,1053.735596 
	C643.151917,1049.485352 639.917175,1044.175903 645.011719,1041.125732 
	C645.449585,1041.395020 645.952515,1041.556030 646.218628,1041.900146 
	C646.722351,1042.551392 647.090027,1043.307983 647.870239,1044.669189 
M1005.060974,1055.037842 
	C1012.245361,1053.420166 1015.217041,1050.630737 1015.458862,1043.951904 
	C1011.775757,1045.155151 1008.578735,1046.560913 1005.236511,1047.170410 
	C1002.819702,1047.611084 999.842346,1047.695557 997.803284,1046.626221 
	C996.183838,1045.776978 995.607178,1042.939087 994.027588,1039.968750 
	C1002.532349,1039.968750 1009.453857,1039.968750 1016.271423,1039.968750 
	C1017.813599,1031.124756 1014.331238,1024.351074 1007.244446,1021.726257 
	C1000.461792,1019.213989 992.338501,1021.453430 989.042175,1027.112915 
	C985.092896,1033.893555 984.580322,1041.188477 988.292236,1048.098145 
	C991.583618,1054.224976 997.583618,1055.708374 1005.060974,1055.037842 
M457.638000,1040.076904 
	C462.567261,1040.076904 467.496490,1040.076904 472.306427,1040.076904 
	C473.800629,1030.428101 468.893951,1022.476624 461.143951,1021.128845 
	C451.225342,1019.404053 443.908875,1024.436523 442.230469,1034.138184 
	C440.429199,1044.549805 445.304535,1053.382080 453.724365,1054.960938 
	C463.038177,1056.707275 470.165344,1052.920166 471.872772,1043.972412 
	C467.990723,1045.144775 464.773926,1046.362793 461.446838,1047.036011 
	C459.150696,1047.500732 456.299164,1047.996460 454.434723,1047.039185 
	C452.564301,1046.078857 451.610229,1043.333862 450.254547,1041.370972 
	C450.614441,1040.939575 450.974304,1040.508057 451.334167,1040.076660 
	C453.119629,1040.076660 454.905060,1040.076660 457.638000,1040.076904 
M693.197998,1027.481201 
	C688.385864,1021.031250 680.654480,1018.897034 673.789368,1022.123474 
	C666.693787,1025.458252 663.158691,1035.030640 665.647705,1044.169556 
	C667.801575,1052.077515 673.692505,1055.708130 683.353027,1055.081055 
	C689.517944,1054.681030 693.796875,1050.950073 694.673096,1043.941528 
	C690.861572,1045.158325 687.658630,1046.520386 684.318237,1047.134155 
	C681.889465,1047.580322 678.913818,1047.754028 676.864563,1046.709961 
	C675.209961,1045.866821 674.575012,1043.022705 672.818481,1039.862061 
	C681.526184,1039.862061 688.578735,1039.862061 696.755859,1039.862061 
	C695.527466,1035.342041 694.548889,1031.741089 693.197998,1027.481201 
M925.461121,1021.426208 
	C915.391541,1025.988892 911.434814,1038.057983 917.010742,1047.906372 
	C920.710327,1054.440796 926.908386,1055.718384 933.815186,1055.042603 
	C938.958984,1054.539307 942.895081,1051.091553 945.045349,1043.988770 
	C940.982666,1045.176147 937.804932,1046.429565 934.510620,1046.963745 
	C931.924377,1047.383057 928.887695,1047.603882 926.632019,1046.603149 
	C925.046936,1045.900024 924.438110,1042.996216 922.805725,1039.994629 
	C931.427856,1039.994629 938.347229,1039.994629 945.155823,1039.994629 
	C947.507202,1027.386597 940.031189,1020.189453 925.461121,1021.426208 
M779.997620,1050.490723 
	C780.964478,1048.888794 781.931274,1047.286743 782.898132,1045.684814 
	C782.639038,1045.239990 782.379944,1044.795044 782.120789,1044.350220 
	C779.065002,1045.093872 776.034607,1045.977417 772.945618,1046.538330 
	C770.335449,1047.012207 767.271118,1048.021729 765.122986,1047.109741 
	C763.157776,1046.275391 762.150574,1043.184570 759.928101,1039.924927 
	C768.724304,1039.924927 775.637146,1039.924927 782.448120,1039.924927 
	C784.522278,1028.361694 778.231689,1020.758850 767.233032,1020.957031 
	C758.615723,1021.112244 753.074341,1026.989136 752.658142,1037.156494 
	C752.376465,1044.038208 753.793030,1050.406616 760.926453,1053.858154 
	C766.479980,1056.545166 774.460388,1055.415405 779.997620,1050.490723 
M1064.703491,1054.256958 
	C1069.157471,1054.476196 1073.643921,1055.127319 1078.056763,1054.797363 
	C1082.781860,1054.443848 1086.595459,1049.884277 1086.939941,1045.369263 
	C1087.335205,1040.187622 1084.527710,1037.223145 1079.988159,1035.719116 
	C1077.007080,1034.731323 1073.798828,1034.409058 1070.852173,1033.345825 
	C1069.425781,1032.831177 1068.367188,1031.297363 1067.142090,1030.224976 
	C1068.685547,1029.485352 1070.174561,1028.352905 1071.789429,1028.129639 
	C1073.093018,1027.949219 1075.203369,1028.432983 1075.822998,1029.370728 
	C1078.515381,1033.445557 1082.093628,1031.895630 1085.601440,1031.662231 
	C1085.674438,1030.936890 1085.844360,1030.425537 1085.754761,1029.964722 
	C1083.954712,1020.716003 1073.300293,1019.531494 1065.751587,1021.809204 
	C1060.839966,1023.291260 1057.872192,1027.816650 1058.106323,1032.355713 
	C1058.370972,1037.486206 1061.979858,1039.343506 1066.210693,1040.529419 
	C1069.410767,1041.426392 1072.674438,1042.118408 1075.821167,1043.167847 
	C1076.705688,1043.462769 1077.633911,1044.611694 1077.858398,1045.535034 
	C1077.995117,1046.097778 1076.803467,1047.625732 1076.246460,1047.606812 
	C1073.357300,1047.507935 1069.051514,1048.109253 1067.872070,1046.516724 
	C1064.578491,1042.069702 1061.191528,1043.694946 1057.388550,1044.420288 
	C1057.840454,1049.061035 1059.856689,1052.237549 1064.703491,1054.256958 
M806.770142,1043.557251 
	C806.616211,1044.853516 806.460693,1047.279419 806.308472,1047.279297 
	C803.289001,1047.275146 799.041809,1048.151489 797.502625,1046.523926 
	C794.143982,1042.972412 790.962708,1043.862549 785.879150,1044.598022 
	C787.906799,1047.683228 789.085083,1050.434570 791.081787,1052.318604 
	C795.494568,1056.482544 807.925232,1056.423096 812.718445,1052.609131 
	C818.962341,1047.640869 817.944275,1039.150757 810.570496,1036.150269 
	C807.523560,1034.910400 804.116333,1034.577271 801.008850,1033.455444 
	C799.506897,1032.913330 798.319031,1031.501221 796.988953,1030.483032 
	C798.793152,1029.669067 800.536682,1028.599854 802.427551,1028.150146 
	C803.351990,1027.930298 805.022766,1028.546997 805.545532,1029.327637 
	C808.182678,1033.265381 811.811279,1031.921387 815.499329,1031.738159 
	C815.238281,1026.898315 813.239319,1023.436401 808.784546,1022.051208 
	C803.087830,1020.279907 797.181641,1019.658569 792.111816,1023.604614 
	C785.309326,1028.899536 786.819824,1037.366455 794.997070,1040.254761 
	C798.584595,1041.521851 802.371643,1042.223633 806.770142,1043.557251 
M591.795166,1049.279785 
	C591.795044,1042.291870 591.795532,1035.303955 591.794617,1028.316040 
	C591.793640,1020.567688 591.324036,1020.203125 582.908691,1021.975952 
	C582.908691,1023.466431 582.909546,1025.082397 582.908630,1026.698364 
	C582.906189,1030.857788 583.141968,1035.036621 582.808411,1039.169312 
	C582.615051,1041.565063 582.107605,1044.431641 580.622070,1046.073486 
	C579.375793,1047.451050 576.156250,1048.291382 574.460815,1047.650024 
	C572.887878,1047.055054 571.341858,1044.230469 571.234863,1042.306885 
	C570.851868,1035.419922 571.084778,1028.498779 571.084778,1021.569580 
	C567.670349,1021.569580 565.109192,1021.569580 562.202698,1021.569580 
	C562.202698,1029.717529 561.570679,1037.569092 562.365845,1045.273438 
	C563.318909,1054.507812 568.663818,1056.312134 577.491943,1054.614014 
	C579.300781,1054.265991 580.871033,1052.677734 582.551270,1051.661255 
	C582.515381,1052.145508 582.479431,1052.629639 582.443542,1053.113892 
	C584.881042,1053.417236 587.348999,1054.053955 589.738708,1053.835327 
	C590.527649,1053.763306 591.114685,1051.483887 591.795166,1049.279785 
M1031.091309,1036.957764 
	C1031.488403,1032.649048 1032.099731,1028.346802 1037.689819,1028.074097 
	C1041.630005,1027.882080 1043.013428,1030.536011 1043.018188,1037.477539 
	C1043.021973,1042.900391 1043.018921,1048.323242 1043.018921,1053.706055 
	C1046.406250,1053.706055 1048.978027,1053.706055 1051.943848,1053.706055 
	C1051.943848,1045.385498 1052.139282,1037.424683 1051.868774,1029.479858 
	C1051.712769,1024.900635 1048.066650,1021.132202 1043.458862,1021.166931 
	C1039.397827,1021.197449 1035.346069,1022.482300 1031.241821,1023.222046 
	C1030.965454,1019.867554 1027.415161,1020.881958 1025.064209,1021.445435 
	C1023.812134,1021.745544 1022.527222,1024.311523 1022.305054,1025.993286 
	C1021.872925,1029.264404 1022.179382,1032.633179 1022.179504,1035.961426 
	C1022.179688,1041.883423 1022.179565,1047.805420 1022.179565,1053.672607 
	C1025.580200,1053.672607 1028.136719,1053.672607 1031.088989,1053.672607 
	C1031.088989,1048.137817 1031.088989,1043.003296 1031.091309,1036.957764 
M610.920288,1020.984985 
	C599.841675,1023.368042 594.697754,1034.796753 599.366333,1046.655518 
	C602.060852,1053.499756 607.620361,1056.199707 616.599854,1055.024780 
	C622.490356,1054.254150 626.433228,1049.954712 627.463440,1042.849121 
	C623.908691,1042.379639 620.347351,1040.259521 617.909851,1045.418457 
	C617.246521,1046.822388 614.281921,1048.025879 612.574524,1047.800293 
	C610.865295,1047.574219 608.272217,1045.609131 608.058533,1044.120239 
	C607.486328,1040.134399 607.250732,1035.806519 608.242004,1031.965698 
	C609.417603,1027.410645 615.097351,1026.338013 617.598999,1030.096924 
	C620.487671,1034.437256 623.962402,1032.931885 627.590210,1032.673828 
	C626.711914,1023.755371 622.892334,1020.983826 610.920288,1020.984985 
M547.866577,1038.787598 
	C548.185425,1031.646484 548.322754,1031.509888 557.670715,1029.127930 
	C557.670715,1026.579834 557.670715,1024.002075 557.670715,1019.829468 
	C553.618652,1021.802917 550.446533,1023.347839 547.340820,1024.860352 
	C547.074158,1018.957458 542.810669,1021.593689 539.457947,1021.462097 
	C539.457947,1032.459839 539.457947,1043.118042 539.457947,1053.800171 
	C542.349792,1053.800171 544.783325,1053.800171 547.864807,1053.800171 
	C547.864807,1048.927246 547.864807,1044.323730 547.866577,1038.787598 
M888.732971,1031.030640 
	C891.075378,1030.415649 893.417786,1029.800659 895.628967,1029.220215 
	C895.628967,1026.421875 895.628967,1023.852417 895.628967,1019.811646 
	C891.661194,1021.799622 888.592773,1023.337036 885.565125,1024.854004 
	C884.892517,1019.309692 880.933716,1021.228516 877.390381,1021.682617 
	C877.390381,1032.534668 877.390381,1043.088867 877.390381,1053.685547 
	C880.315918,1053.685547 882.867249,1053.685547 885.868713,1053.685547 
	C885.868713,1048.836670 885.609009,1044.353638 885.962158,1039.919312 
	C886.188477,1037.076294 887.318481,1034.305054 888.732971,1031.030640 
M434.970123,1021.340637 
	C432.727600,1021.340637 430.485107,1021.340637 428.305481,1021.340637 
	C428.305481,1032.592285 428.305481,1043.136475 428.305481,1053.644165 
	C431.256836,1053.644165 433.799500,1053.644165 436.750122,1053.644165 
	C436.750122,1044.779175 436.813507,1036.329102 436.704834,1027.881348 
	C436.678192,1025.812866 436.088531,1023.751526 434.970123,1021.340637 
M900.863525,1024.770996 
	C900.863525,1034.343628 900.863525,1043.916260 900.863525,1053.713135 
	C903.875305,1053.713135 906.244751,1053.713135 908.799683,1053.713135 
	C908.799683,1042.839966 908.799683,1032.321777 908.799683,1021.307983 
	C905.834534,1022.104492 902.215271,1018.723572 900.863525,1024.770996 
M904.552246,1010.143982 
	C897.956421,1010.038513 900.724243,1014.411804 900.666138,1018.092102 
	C903.978271,1016.980042 908.442444,1020.762207 909.611755,1014.774841 
	C910.255066,1011.480530 908.986816,1009.698303 904.552246,1010.143982 
M436.520782,1017.054993 
	C436.520782,1014.837646 436.520782,1012.620300 436.520782,1010.389038 
	C433.429199,1010.389038 430.985474,1010.389038 428.138123,1010.389038 
	C427.892273,1012.953308 427.669037,1015.281677 427.395355,1018.136353 
	C430.717651,1017.968262 433.333771,1017.835876 436.520782,1017.054993 
M568.759644,1009.988098 
	C568.037415,1012.085205 567.315186,1014.182312 566.480286,1016.606689 
	C570.095398,1016.606689 572.314575,1016.606689 574.512634,1016.606689 
	C574.512634,1014.232300 574.512634,1012.222046 574.512634,1009.935425 
	C572.592163,1009.935425 571.122314,1009.935425 568.759644,1009.988098 
M585.194519,1009.982849 
	C583.277405,1009.982849 581.360291,1009.982849 579.351074,1009.982849 
	C579.351074,1012.589478 579.351074,1014.598267 579.351074,1016.617188 
	C581.990051,1016.617188 584.207397,1016.617188 587.170654,1016.617188 
	C586.740173,1014.180176 586.391174,1012.204651 585.194519,1009.982849 
z"/>
<path fill="#F03838" opacity="1.000000" stroke="none" 
	d="
M683.777466,859.989990 
	C658.788574,860.056580 633.799683,860.157715 608.810669,860.181458 
	C573.490112,860.215027 538.169189,860.262695 502.849335,860.103088 
	C498.396698,860.082947 496.831970,861.109558 496.878387,865.883850 
	C497.122833,891.039124 497.019287,916.197937 496.992126,941.355530 
	C496.977417,954.965942 489.455536,965.466492 477.392059,968.875610 
	C465.146484,972.336182 453.598846,967.479004 446.309448,955.832581 
	C445.466553,954.485840 444.486450,953.225037 443.040619,951.173157 
	C441.646942,953.350342 440.682922,954.792542 439.782440,956.273376 
	C433.293640,966.944031 421.449768,972.166931 410.392670,969.217896 
	C397.483124,965.774780 389.247253,955.538269 389.190979,942.373413 
	C389.082733,917.049683 389.148987,891.725159 389.142975,866.401001 
	C389.142517,864.585327 389.142914,862.769714 389.142914,860.294312 
	C350.410736,860.294312 312.038177,860.294312 273.367798,860.294312 
	C273.367798,845.059387 273.367798,830.487366 273.367798,815.411865 
	C311.756836,815.411865 350.003845,815.411865 388.708862,815.411865 
	C388.708862,769.396118 388.708862,723.879639 388.708862,677.356812 
	C386.594452,678.856384 384.864685,679.940308 383.293427,681.219055 
	C361.150909,699.239685 336.254852,711.908569 308.764038,719.479858 
	C295.938751,723.012085 284.784851,716.861511 280.986481,704.389893 
	C277.439484,692.743774 283.875671,680.784424 296.354797,677.068298 
	C316.016418,671.213318 334.380096,662.861694 350.860779,650.550049 
	C363.760742,640.913330 375.041962,629.626770 384.463226,616.598267 
	C386.919617,613.201355 389.080475,612.843628 392.777466,614.035034 
	C435.741699,627.880859 477.425079,624.476379 517.692139,604.187012 
	C534.670471,595.632141 549.345825,583.946899 562.908569,570.245544 
	C571.528748,580.768738 579.630798,591.195068 587.694763,601.650940 
	C588.671143,602.916931 589.441467,604.341858 589.954224,605.817871 
	C589.206787,606.247803 588.778381,606.518066 588.422852,606.863281 
	C563.719299,630.849426 535.061035,648.158752 501.923370,657.760742 
	C497.911133,658.923401 496.900879,660.882690 496.911224,664.840637 
	C497.038025,713.324585 496.989014,761.809082 497.002563,810.293396 
	C497.002960,811.744385 497.188629,813.195312 497.327484,815.225220 
	C499.573212,815.225220 501.522858,815.225159 503.472473,815.225159 
	C561.120483,815.224976 618.768555,815.216858 676.416565,815.252441 
	C678.894653,815.253967 681.372498,815.659546 683.926392,816.347900 
	C683.927368,831.209229 683.852417,845.599609 683.777466,859.989990 
z"/>
<path fill="#F03838" opacity="1.000000" stroke="none" 
	d="
M912.888855,569.741150 
	C927.245361,584.857117 943.432129,597.485168 962.405273,606.375732 
	C998.808167,623.433655 1036.398071,627.059204 1075.230713,616.348450 
	C1087.924194,612.847412 1087.833618,612.780334 1096.076416,622.847473 
	C1117.028320,648.436523 1143.242310,666.265442 1175.024902,675.570862 
	C1185.154175,678.536499 1193.005859,683.313538 1195.276611,694.478638 
	C1198.303589,709.362976 1184.135254,723.615540 1169.400269,719.979187 
	C1141.666626,713.135071 1116.764404,700.394714 1094.304443,682.806274 
	C1092.342163,681.269592 1090.367554,679.748291 1088.368530,678.260193 
	C1088.166992,678.110046 1087.756714,678.240051 1086.829102,678.240051 
	C1086.829102,723.711670 1086.829102,769.169006 1086.829102,815.228699 
	C1088.614258,815.228699 1090.396851,815.228760 1092.179443,815.228699 
	C1120.012085,815.227905 1147.846191,815.378784 1175.675903,815.092346 
	C1180.946899,815.038086 1182.077637,816.659302 1181.944458,821.585693 
	C1181.603149,834.206177 1181.830444,846.842102 1181.830444,860.156006 
	C1149.966187,860.156006 1118.587646,860.156006 1086.677856,860.156006 
	C1086.677856,862.633301 1086.677856,864.423645 1086.677856,866.214050 
	C1086.677979,889.362976 1086.747559,912.512329 1086.621582,935.660583 
	C1086.595337,940.461792 1086.534668,945.447327 1085.288452,950.020569 
	C1082.298462,960.992432 1074.661865,967.766724 1063.550903,969.605835 
	C1052.797241,971.385864 1043.941895,967.237366 1037.391724,958.478394 
	C1035.912598,956.500488 1034.702637,954.321350 1032.901855,951.504578 
	C1031.459839,953.323853 1030.168335,954.680359 1029.188477,956.233521 
	C1022.310791,967.134888 1010.520325,972.252197 999.301392,969.125244 
	C986.323425,965.507996 978.868835,955.643433 978.849792,941.868713 
	C978.814941,916.702820 978.686279,891.534912 978.975891,866.372253 
	C979.036133,861.139160 977.412292,860.069031 972.481201,860.083435 
	C914.816589,860.252136 857.151367,860.192871 799.486267,860.185486 
	C797.320923,860.185242 795.155518,860.101746 792.411865,859.597717 
	C791.886047,844.681641 791.938599,830.224854 792.402588,815.758667 
	C795.130920,815.574890 797.447754,815.249634 799.764709,815.248535 
	C857.427856,815.220581 915.091003,815.229736 972.754150,815.213928 
	C974.665955,815.213379 976.577759,815.020508 978.502930,814.916626 
	C978.665894,813.686218 978.826233,813.040039 978.826416,812.393860 
	C978.840454,762.730286 978.810669,713.066650 978.912048,663.403259 
	C978.919067,659.960938 977.329651,658.858948 974.426453,658.005432 
	C940.159546,647.931274 910.474426,630.145386 885.511841,604.497620 
	C894.765747,592.715149 903.827271,581.228149 912.888855,569.741150 
z"/>
<path fill="#FEFEFE" opacity="1.000000" stroke="none" 
	d="
M912.949707,569.407471 
	C903.827271,581.228149 894.765747,592.715149 885.236389,604.626221 
	C875.805908,612.718262 867.240662,620.920837 857.796326,627.940796 
	C839.203552,641.760742 818.432190,651.463196 796.219055,658.019409 
	C793.373230,658.859375 791.810059,659.870850 791.820557,663.360657 
	C791.973938,714.162842 791.962891,764.965576 791.991089,815.768127 
	C791.938599,830.224854 791.886047,844.681641 791.946960,859.603516 
	C792.010681,887.383728 792.013000,914.699036 791.891846,942.013794 
	C791.818909,958.461487 778.955627,970.798950 762.612610,969.865540 
	C753.339722,969.335876 746.343384,964.552612 741.463257,956.678955 
	C740.676514,955.409607 739.947144,954.104431 739.146912,952.843994 
	C738.983643,952.586853 738.620850,952.456482 737.736755,951.840027 
	C736.643311,953.317322 735.456360,954.765686 734.436523,956.323486 
	C726.938660,967.776489 715.237610,972.448608 703.096313,968.794617 
	C691.363159,965.263489 684.012390,954.749939 683.995239,941.362366 
	C683.960938,914.544189 683.960388,887.725952 683.861694,860.448853 
	C683.852417,845.599609 683.927368,831.209229 683.998596,815.899536 
	C683.994202,765.215820 683.920410,715.451233 684.111816,665.687622 
	C684.129944,660.979492 682.701355,659.088257 678.242737,657.759521 
	C651.780457,649.873413 627.870667,637.088623 606.628662,619.395691 
	C601.170471,614.849426 595.746826,610.261780 590.307312,605.693115 
	C589.441467,604.341858 588.671143,602.916931 587.694763,601.650940 
	C579.630798,591.195068 571.528748,580.768738 563.201782,570.074402 
	C561.041077,566.143738 558.562744,562.652405 557.298340,558.766052 
	C553.775330,547.937500 559.202942,536.805786 569.832703,532.046326 
	C580.020264,527.484863 591.695740,531.210205 597.526184,541.081543 
	C610.783508,563.527100 627.966125,582.257019 649.991333,596.314453 
	C671.013306,609.731567 693.752136,618.469482 718.725281,621.152100 
	C764.750122,626.096008 805.714111,613.997925 841.548645,584.809265 
	C856.265930,572.821472 868.061218,558.239685 877.648254,541.855530 
	C882.419800,533.700806 891.540771,528.884216 899.780884,530.288086 
	C909.073425,531.871277 915.762756,536.936035 918.442017,546.168701 
	C920.910706,554.675964 918.143005,562.223694 912.949707,569.407471 
z"/>
<path fill="#F03838" opacity="1.000000" stroke="none" 
	d="
M993.836548,520.824829 
	C1012.335632,504.631653 1032.896484,500.080109 1055.182739,510.183411 
	C1076.225952,519.723145 1087.725342,536.932434 1088.598877,560.063293 
	C1089.672363,588.483337 1066.750488,613.985840 1038.662354,616.831909 
	C1009.253845,619.811890 982.149658,599.681213 977.349609,570.730408 
	C974.171326,551.560303 979.813354,534.895325 993.836548,520.824829 
z"/>
<path fill="#F03838" opacity="1.000000" stroke="none" 
	d="
M388.695007,574.159546 
	C380.839935,541.378540 403.929260,509.888672 436.815338,505.294739 
	C461.883209,501.792969 489.763733,519.973755 496.758453,544.945557 
	C507.769318,584.255493 477.378571,620.631409 436.705627,616.825134 
	C414.498230,614.746948 395.509735,597.982483 388.695007,574.159546 
z"/>
<path fill="#FEFEFE" opacity="1.000000" stroke="none" 
	d="
M779.314758,523.707581 
	C792.889648,539.317566 797.284851,556.940857 791.615417,576.438721 
	C785.664856,596.903625 771.993286,610.346985 751.208496,615.248047 
	C718.209961,623.028992 688.364380,602.812500 682.365601,569.344482 
	C677.250305,540.805603 699.341370,510.333466 728.024475,505.973022 
	C748.184509,502.908264 765.066162,508.823639 779.314758,523.707581 
z"/>
<path fill="#FDFDFD" opacity="1.000000" stroke="none" 
	d="
M529.642944,1048.437012 
	C526.566162,1052.418091 522.780090,1054.070923 518.156616,1054.045288 
	C510.725616,1054.004272 503.294220,1054.034302 495.242615,1054.034302 
	C495.242615,1046.069824 495.246307,1038.638184 495.241455,1031.206543 
	C495.237762,1025.556274 495.027588,1019.894897 495.350037,1014.263611 
	C495.431366,1012.843445 497.145599,1010.386963 498.202393,1010.335999 
	C504.997589,1010.008667 511.835999,1009.932312 518.625488,1010.345337 
	C523.628784,1010.649780 527.971558,1012.652466 529.849854,1017.985840 
	C531.659363,1023.123901 530.296692,1027.368164 526.233093,1030.783203 
	C532.640503,1037.077637 533.280334,1040.294556 529.642944,1048.437012 
M511.460266,1035.193970 
	C509.137604,1035.643066 505.302917,1035.467773 504.806122,1036.671021 
	C503.761414,1039.200928 503.973907,1042.590088 504.728149,1045.336060 
	C504.988129,1046.282715 508.381805,1046.403198 510.360596,1046.822754 
	C510.995331,1046.957275 511.683411,1046.841187 512.347107,1046.838013 
	C519.169067,1046.805298 522.716431,1044.686646 522.543091,1040.749146 
	C522.380371,1037.055176 519.072815,1035.250122 511.460266,1035.193970 
M505.028442,1027.647339 
	C509.011230,1027.690308 513.092529,1028.260742 516.933350,1027.543335 
	C518.728821,1027.208130 520.059448,1024.383911 521.600830,1022.687805 
	C519.910034,1021.152344 518.398193,1018.636414 516.490601,1018.288269 
	C512.673035,1017.591553 508.638824,1018.081421 504.426605,1018.081421 
	C504.426605,1021.434570 504.426605,1024.214111 505.028442,1027.647339 
z"/>
<path fill="#FDFDFD" opacity="1.000000" stroke="none" 
	d="
M410.170288,1011.558228 
	C419.105621,1015.783997 423.044830,1025.846802 420.615845,1037.476929 
	C418.061493,1049.707275 412.755859,1054.041138 400.275330,1054.072510 
	C395.127838,1054.085449 389.980255,1054.074585 384.408813,1054.074585 
	C384.408813,1039.532227 384.408813,1025.307007 384.408813,1009.707825 
	C392.829895,1010.268860 401.319427,1010.834473 410.170288,1011.558228 
M392.965973,1040.383911 
	C392.965973,1042.330933 392.965973,1044.277954 392.965973,1046.604858 
	C399.346008,1046.853271 405.309418,1047.911621 409.250763,1042.020630 
	C412.729401,1036.821289 412.765900,1025.404297 408.934296,1021.063782 
	C404.521484,1016.064697 398.666595,1018.315491 392.966095,1018.273193 
	C392.966095,1025.768555 392.966095,1032.589355 392.965973,1040.383911 
z"/>
<path fill="#FCFCFC" opacity="1.000000" stroke="none" 
	d="
M732.527649,1055.041626 
	C724.090820,1055.139893 719.082214,1051.931519 717.140015,1045.490845 
	C714.502075,1036.742920 717.009338,1026.502563 723.059265,1022.862061 
	C728.172241,1019.785400 733.471985,1020.207092 738.956665,1023.860352 
	C738.956665,1019.231323 738.956665,1015.153381 738.956665,1010.616211 
	C742.019897,1010.616211 744.692078,1010.616211 747.660706,1010.616211 
	C747.768311,1012.023743 747.949951,1013.308655 747.952026,1014.593750 
	C747.973206,1027.527832 747.964844,1040.461914 747.964844,1053.450562 
	C742.774536,1055.317749 737.449280,1051.456787 732.527649,1055.041626 
M731.599426,1028.007202 
	C726.905884,1028.468262 725.301453,1032.276855 725.391418,1035.742065 
	C725.490540,1039.563110 726.884216,1043.709351 728.949829,1046.918335 
	C729.635315,1047.983154 734.930786,1047.575439 736.762268,1046.126465 
	C742.184021,1041.837280 739.080627,1029.998535 731.599426,1028.007202 
z"/>
<path fill="#FCFCFC" opacity="1.000000" stroke="none" 
	d="
M957.350952,1054.151367 
	C948.341125,1047.432129 946.310242,1035.314575 952.378845,1026.466431 
	C956.573792,1020.350159 962.620605,1019.363220 972.055908,1023.706299 
	C972.055908,1021.365051 972.055847,1019.311646 972.055847,1017.258240 
	C972.055847,1015.126099 972.055908,1012.994019 972.055908,1010.498169 
	C975.067322,1010.498169 977.624939,1010.498169 980.577332,1010.498169 
	C980.577332,1024.810181 980.577332,1039.032959 980.577332,1054.334106 
	C977.662598,1053.844727 974.943054,1053.322754 972.201843,1052.968628 
	C971.398499,1052.864990 970.539612,1053.310303 969.695801,1053.381226 
	C965.702942,1053.717285 961.706421,1054.010742 957.350952,1054.151367 
M958.403442,1041.702148 
	C959.287842,1044.868896 960.554321,1048.177246 964.376221,1047.893921 
	C966.667725,1047.723999 970.491394,1046.097900 970.738770,1044.637329 
	C971.474304,1040.294067 971.283691,1035.601440 970.362854,1031.278076 
	C970.055359,1029.834351 966.413818,1028.207520 964.367554,1028.296753 
	C962.578552,1028.374756 960.066833,1030.410889 959.349731,1032.180176 
	C958.283386,1034.810913 958.517029,1037.968628 958.403442,1041.702148 
z"/>
<path fill="#FBFBFB" opacity="1.000000" stroke="none" 
	d="
M845.919556,1054.080566 
	C843.986938,1054.081299 842.508118,1054.081299 840.478760,1054.081299 
	C840.380249,1051.954468 840.231079,1050.190552 840.227783,1048.426270 
	C840.206665,1037.110352 840.256897,1025.794067 840.189148,1014.478577 
	C840.172852,1011.754150 840.697571,1010.053162 843.994690,1010.101624 
	C852.966797,1010.233643 861.942078,1010.146973 871.533447,1010.146973 
	C871.656250,1012.624573 871.766479,1014.849243 871.914856,1017.842163 
	C864.558533,1017.842163 857.527771,1017.842163 850.185913,1017.842163 
	C850.185913,1021.475952 850.185913,1024.367432 850.185913,1027.779541 
	C856.265686,1027.779541 862.184998,1027.779541 868.528198,1027.779541 
	C868.528198,1030.511963 868.528198,1032.736450 868.528198,1035.672363 
	C862.619080,1035.672363 856.578125,1035.672363 849.848022,1035.672363 
	C849.848022,1040.959229 849.762939,1045.558960 849.881409,1050.153442 
	C849.947449,1052.714844 849.439880,1054.460327 845.919556,1054.080566 
z"/>
<path fill="#FDFDFD" opacity="1.000000" stroke="none" 
	d="
M647.692261,1044.344971 
	C647.090027,1043.307983 646.722351,1042.551392 646.218628,1041.900146 
	C645.952515,1041.556030 645.449585,1041.395020 645.011719,1041.125732 
	C639.917175,1044.175903 643.151917,1049.485352 641.410522,1053.735596 
	C638.956055,1053.735596 636.414917,1053.735596 633.820190,1053.735596 
	C633.820190,1039.269409 633.820190,1025.065308 633.820190,1010.511414 
	C636.632629,1010.511414 638.881348,1010.511414 641.724060,1010.511414 
	C641.724060,1017.677734 641.724060,1024.890015 641.724060,1033.139038 
	C648.444214,1028.167480 651.079773,1017.858093 662.281555,1022.100098 
	C660.076416,1024.607056 658.224182,1027.267822 655.835510,1029.296875 
	C652.361694,1032.247559 651.549133,1034.742432 654.554749,1038.806030 
	C657.851990,1043.263794 660.194946,1048.427612 663.043884,1053.442383 
	C653.347961,1055.115967 653.347961,1055.115967 647.692261,1044.344971 
z"/>
<path fill="#FCFCFC" opacity="1.000000" stroke="none" 
	d="
M1004.624695,1055.059570 
	C997.583618,1055.708374 991.583618,1054.224976 988.292236,1048.098145 
	C984.580322,1041.188477 985.092896,1033.893555 989.042175,1027.112915 
	C992.338501,1021.453430 1000.461792,1019.213989 1007.244446,1021.726257 
	C1014.331238,1024.351074 1017.813599,1031.124756 1016.271423,1039.968750 
	C1009.453857,1039.968750 1002.532349,1039.968750 994.027588,1039.968750 
	C995.607178,1042.939087 996.183838,1045.776978 997.803284,1046.626221 
	C999.842346,1047.695557 1002.819702,1047.611084 1005.236511,1047.170410 
	C1008.578735,1046.560913 1011.775757,1045.155151 1015.458862,1043.951904 
	C1015.217041,1050.630737 1012.245361,1053.420166 1004.624695,1055.059570 
M1007.003296,1030.650146 
	C1001.205505,1026.065308 997.093994,1027.096680 995.341675,1034.110840 
	C998.862305,1034.110840 1002.265442,1034.260498 1005.633606,1033.984375 
	C1006.305664,1033.929443 1006.844543,1032.248779 1007.003296,1030.650146 
z"/>
<path fill="#FCFCFC" opacity="1.000000" stroke="none" 
	d="
M457.164246,1040.076782 
	C454.905060,1040.076660 453.119629,1040.076660 451.334167,1040.076660 
	C450.974304,1040.508057 450.614441,1040.939575 450.254547,1041.370972 
	C451.610229,1043.333862 452.564301,1046.078857 454.434723,1047.039185 
	C456.299164,1047.996460 459.150696,1047.500732 461.446838,1047.036011 
	C464.773926,1046.362793 467.990723,1045.144775 471.872772,1043.972412 
	C470.165344,1052.920166 463.038177,1056.707275 453.724365,1054.960938 
	C445.304535,1053.382080 440.429199,1044.549805 442.230469,1034.138184 
	C443.908875,1024.436523 451.225342,1019.404053 461.143951,1021.128845 
	C468.893951,1022.476624 473.800629,1030.428101 472.306427,1040.076904 
	C467.496490,1040.076904 462.567261,1040.076904 457.164246,1040.076782 
M462.849457,1030.725586 
	C460.160858,1029.926025 457.441711,1028.465698 454.795654,1028.588013 
	C453.332275,1028.655640 451.991364,1031.374146 450.595245,1032.897827 
	C450.885925,1033.301636 451.176575,1033.705566 451.467255,1034.109375 
	C454.775726,1034.109375 458.096283,1034.257080 461.382599,1033.987427 
	C462.058807,1033.932007 462.607147,1032.317993 462.849457,1030.725586 
z"/>
<path fill="#FCFCFC" opacity="1.000000" stroke="none" 
	d="
M693.384155,1027.810669 
	C694.548889,1031.741089 695.527466,1035.342041 696.755859,1039.862061 
	C688.578735,1039.862061 681.526184,1039.862061 672.818481,1039.862061 
	C674.575012,1043.022705 675.209961,1045.866821 676.864563,1046.709961 
	C678.913818,1047.754028 681.889465,1047.580322 684.318237,1047.134155 
	C687.658630,1046.520386 690.861572,1045.158325 694.673096,1043.941528 
	C693.796875,1050.950073 689.517944,1054.681030 683.353027,1055.081055 
	C673.692505,1055.708130 667.801575,1052.077515 665.647705,1044.169556 
	C663.158691,1035.030640 666.693787,1025.458252 673.789368,1022.123474 
	C680.654480,1018.897034 688.385864,1021.031250 693.384155,1027.810669 
M674.998413,1030.652832 
	C673.684998,1032.672729 673.616394,1034.107910 676.617432,1034.106567 
	C679.906433,1034.105225 683.195435,1034.106201 686.592590,1034.106201 
	C685.108582,1027.710449 680.828003,1026.315430 674.998413,1030.652832 
z"/>
<path fill="#FCFCFC" opacity="1.000000" stroke="none" 
	d="
M925.858276,1021.308228 
	C940.031189,1020.189453 947.507202,1027.386597 945.155823,1039.994629 
	C938.347229,1039.994629 931.427856,1039.994629 922.805725,1039.994629 
	C924.438110,1042.996216 925.046936,1045.900024 926.632019,1046.603149 
	C928.887695,1047.603882 931.924377,1047.383057 934.510620,1046.963745 
	C937.804932,1046.429565 940.982666,1045.176147 945.045349,1043.988770 
	C942.895081,1051.091553 938.958984,1054.539307 933.815186,1055.042603 
	C926.908386,1055.718384 920.710327,1054.440796 917.010742,1047.906372 
	C911.434814,1038.057983 915.391541,1025.988892 925.858276,1021.308228 
M931.991333,1028.156860 
	C927.803894,1027.520874 924.888367,1028.749512 923.974976,1033.758057 
	C928.338867,1033.758057 932.376099,1033.758057 938.057983,1033.758057 
	C935.711426,1031.393799 934.225769,1029.896851 931.991333,1028.156860 
z"/>
<path fill="#FDFDFD" opacity="1.000000" stroke="none" 
	d="
M779.738708,1050.756836 
	C774.460388,1055.415405 766.479980,1056.545166 760.926453,1053.858154 
	C753.793030,1050.406616 752.376465,1044.038208 752.658142,1037.156494 
	C753.074341,1026.989136 758.615723,1021.112244 767.233032,1020.957031 
	C778.231689,1020.758850 784.522278,1028.361694 782.448120,1039.924927 
	C775.637146,1039.924927 768.724304,1039.924927 759.928101,1039.924927 
	C762.150574,1043.184570 763.157776,1046.275391 765.122986,1047.109741 
	C767.271118,1048.021729 770.335449,1047.012207 772.945618,1046.538330 
	C776.034607,1045.977417 779.065002,1045.093872 782.120789,1044.350220 
	C782.379944,1044.795044 782.639038,1045.239990 782.898132,1045.684814 
	C781.931274,1047.286743 780.964478,1048.888794 779.738708,1050.756836 
M762.337646,1031.252930 
	C762.802917,1032.186646 763.211914,1033.889771 763.742615,1033.928589 
	C767.111877,1034.175049 770.507935,1034.053955 774.098877,1034.053955 
	C772.090698,1027.222046 767.914246,1026.224487 762.337646,1031.252930 
z"/>
<path fill="#FCFCFC" opacity="1.000000" stroke="none" 
	d="
M1064.329834,1054.105713 
	C1059.856689,1052.237549 1057.840454,1049.061035 1057.388550,1044.420288 
	C1061.191528,1043.694946 1064.578491,1042.069702 1067.872070,1046.516724 
	C1069.051514,1048.109253 1073.357300,1047.507935 1076.246460,1047.606812 
	C1076.803467,1047.625732 1077.995117,1046.097778 1077.858398,1045.535034 
	C1077.633911,1044.611694 1076.705688,1043.462769 1075.821167,1043.167847 
	C1072.674438,1042.118408 1069.410767,1041.426392 1066.210693,1040.529419 
	C1061.979858,1039.343506 1058.370972,1037.486206 1058.106323,1032.355713 
	C1057.872192,1027.816650 1060.839966,1023.291260 1065.751587,1021.809204 
	C1073.300293,1019.531494 1083.954712,1020.716003 1085.754761,1029.964722 
	C1085.844360,1030.425537 1085.674438,1030.936890 1085.601440,1031.662231 
	C1082.093628,1031.895630 1078.515381,1033.445557 1075.822998,1029.370728 
	C1075.203369,1028.432983 1073.093018,1027.949219 1071.789429,1028.129639 
	C1070.174561,1028.352905 1068.685547,1029.485352 1067.142090,1030.224976 
	C1068.367188,1031.297363 1069.425781,1032.831177 1070.852173,1033.345825 
	C1073.798828,1034.409058 1077.007080,1034.731323 1079.988159,1035.719116 
	C1084.527710,1037.223145 1087.335205,1040.187622 1086.939941,1045.369263 
	C1086.595459,1049.884277 1082.781860,1054.443848 1078.056763,1054.797363 
	C1073.643921,1055.127319 1069.157471,1054.476196 1064.329834,1054.105713 
z"/>
<path fill="#FCFCFC" opacity="1.000000" stroke="none" 
	d="
M806.419128,1043.369751 
	C802.371643,1042.223633 798.584595,1041.521851 794.997070,1040.254761 
	C786.819824,1037.366455 785.309326,1028.899536 792.111816,1023.604614 
	C797.181641,1019.658569 803.087830,1020.279907 808.784546,1022.051208 
	C813.239319,1023.436401 815.238281,1026.898315 815.499329,1031.738159 
	C811.811279,1031.921387 808.182678,1033.265381 805.545532,1029.327637 
	C805.022766,1028.546997 803.351990,1027.930298 802.427551,1028.150146 
	C800.536682,1028.599854 798.793152,1029.669067 796.988953,1030.483032 
	C798.319031,1031.501221 799.506897,1032.913330 801.008850,1033.455444 
	C804.116333,1034.577271 807.523560,1034.910400 810.570496,1036.150269 
	C817.944275,1039.150757 818.962341,1047.640869 812.718445,1052.609131 
	C807.925232,1056.423096 795.494568,1056.482544 791.081787,1052.318604 
	C789.085083,1050.434570 787.906799,1047.683228 785.879150,1044.598022 
	C790.962708,1043.862549 794.143982,1042.972412 797.502625,1046.523926 
	C799.041809,1048.151489 803.289001,1047.275146 806.308472,1047.279297 
	C806.460693,1047.279419 806.616211,1044.853516 806.419128,1043.369751 
z"/>
<path fill="#FCFCFC" opacity="1.000000" stroke="none" 
	d="
M591.794556,1049.746826 
	C591.114685,1051.483887 590.527649,1053.763306 589.738708,1053.835327 
	C587.348999,1054.053955 584.881042,1053.417236 582.443542,1053.113892 
	C582.479431,1052.629639 582.515381,1052.145508 582.551270,1051.661255 
	C580.871033,1052.677734 579.300781,1054.265991 577.491943,1054.614014 
	C568.663818,1056.312134 563.318909,1054.507812 562.365845,1045.273438 
	C561.570679,1037.569092 562.202698,1029.717529 562.202698,1021.569580 
	C565.109192,1021.569580 567.670349,1021.569580 571.084778,1021.569580 
	C571.084778,1028.498779 570.851868,1035.419922 571.234863,1042.306885 
	C571.341858,1044.230469 572.887878,1047.055054 574.460815,1047.650024 
	C576.156250,1048.291382 579.375793,1047.451050 580.622070,1046.073486 
	C582.107605,1044.431641 582.615051,1041.565063 582.808411,1039.169312 
	C583.141968,1035.036621 582.906189,1030.857788 582.908630,1026.698364 
	C582.909546,1025.082397 582.908691,1023.466431 582.908691,1021.975952 
	C591.324036,1020.203125 591.793640,1020.567688 591.794617,1028.316040 
	C591.795532,1035.303955 591.795044,1042.291870 591.794556,1049.746826 
z"/>
<path fill="#FBFBFB" opacity="1.000000" stroke="none" 
	d="
M1031.090088,1037.413330 
	C1031.088989,1043.003296 1031.088989,1048.137817 1031.088989,1053.672607 
	C1028.136719,1053.672607 1025.580200,1053.672607 1022.179565,1053.672607 
	C1022.179565,1047.805420 1022.179688,1041.883423 1022.179504,1035.961426 
	C1022.179382,1032.633179 1021.872925,1029.264404 1022.305054,1025.993286 
	C1022.527222,1024.311523 1023.812134,1021.745544 1025.064209,1021.445435 
	C1027.415161,1020.881958 1030.965454,1019.867554 1031.241821,1023.222046 
	C1035.346069,1022.482300 1039.397827,1021.197449 1043.458862,1021.166931 
	C1048.066650,1021.132202 1051.712769,1024.900635 1051.868774,1029.479858 
	C1052.139282,1037.424683 1051.943848,1045.385498 1051.943848,1053.706055 
	C1048.978027,1053.706055 1046.406250,1053.706055 1043.018921,1053.706055 
	C1043.018921,1048.323242 1043.021973,1042.900391 1043.018188,1037.477539 
	C1043.013428,1030.536011 1041.630005,1027.882080 1037.689819,1028.074097 
	C1032.099731,1028.346802 1031.488403,1032.649048 1031.090088,1037.413330 
z"/>
<path fill="#FCFCFC" opacity="1.000000" stroke="none" 
	d="
M611.353943,1020.968506 
	C622.892334,1020.983826 626.711914,1023.755371 627.590210,1032.673828 
	C623.962402,1032.931885 620.487671,1034.437256 617.598999,1030.096924 
	C615.097351,1026.338013 609.417603,1027.410645 608.242004,1031.965698 
	C607.250732,1035.806519 607.486328,1040.134399 608.058533,1044.120239 
	C608.272217,1045.609131 610.865295,1047.574219 612.574524,1047.800293 
	C614.281921,1048.025879 617.246521,1046.822388 617.909851,1045.418457 
	C620.347351,1040.259521 623.908691,1042.379639 627.463440,1042.849121 
	C626.433228,1049.954712 622.490356,1054.254150 616.599854,1055.024780 
	C607.620361,1056.199707 602.060852,1053.499756 599.366333,1046.655518 
	C594.697754,1034.796753 599.841675,1023.368042 611.353943,1020.968506 
z"/>
<path fill="#FBFBFB" opacity="1.000000" stroke="none" 
	d="
M547.865723,1039.253906 
	C547.864807,1044.323730 547.864807,1048.927246 547.864807,1053.800171 
	C544.783325,1053.800171 542.349792,1053.800171 539.457947,1053.800171 
	C539.457947,1043.118042 539.457947,1032.459839 539.457947,1021.462097 
	C542.810669,1021.593689 547.074158,1018.957458 547.340820,1024.860352 
	C550.446533,1023.347839 553.618652,1021.802917 557.670715,1019.829468 
	C557.670715,1024.002075 557.670715,1026.579834 557.670715,1029.127930 
	C548.322754,1031.509888 548.185425,1031.646484 547.865723,1039.253906 
z"/>
<path fill="#FBFBFB" opacity="1.000000" stroke="none" 
	d="
M888.388184,1031.266113 
	C887.318481,1034.305054 886.188477,1037.076294 885.962158,1039.919312 
	C885.609009,1044.353638 885.868713,1048.836670 885.868713,1053.685547 
	C882.867249,1053.685547 880.315918,1053.685547 877.390381,1053.685547 
	C877.390381,1043.088867 877.390381,1032.534668 877.390381,1021.682617 
	C880.933716,1021.228516 884.892517,1019.309692 885.565125,1024.854004 
	C888.592773,1023.337036 891.661194,1021.799622 895.628967,1019.811646 
	C895.628967,1023.852417 895.628967,1026.421875 895.628967,1029.220215 
	C893.417786,1029.800659 891.075378,1030.415649 888.388184,1031.266113 
z"/>
<path fill="#FEFEFE" opacity="1.000000" stroke="none" 
	d="
M435.363922,1021.513794 
	C436.088531,1023.751526 436.678192,1025.812866 436.704834,1027.881348 
	C436.813507,1036.329102 436.750122,1044.779175 436.750122,1053.644165 
	C433.799500,1053.644165 431.256836,1053.644165 428.305481,1053.644165 
	C428.305481,1043.136475 428.305481,1032.592285 428.305481,1021.340637 
	C430.485107,1021.340637 432.727600,1021.340637 435.363922,1021.513794 
z"/>
<path fill="#FEFEFE" opacity="1.000000" stroke="none" 
	d="
M900.869019,1024.306396 
	C902.215271,1018.723572 905.834534,1022.104492 908.799683,1021.307983 
	C908.799683,1032.321777 908.799683,1042.839966 908.799683,1053.713135 
	C906.244751,1053.713135 903.875305,1053.713135 900.863525,1053.713135 
	C900.863525,1043.916260 900.863525,1034.343628 900.869019,1024.306396 
z"/>
<path fill="#FBFBFB" opacity="1.000000" stroke="none" 
	d="
M904.974365,1010.144348 
	C908.986816,1009.698303 910.255066,1011.480530 909.611755,1014.774841 
	C908.442444,1020.762207 903.978271,1016.980042 900.666138,1018.092102 
	C900.724243,1014.411804 897.956421,1010.038513 904.974365,1010.144348 
z"/>
<path fill="#FBFBFB" opacity="1.000000" stroke="none" 
	d="
M436.235321,1017.379272 
	C433.333771,1017.835876 430.717651,1017.968262 427.395355,1018.136353 
	C427.669037,1015.281677 427.892273,1012.953308 428.138123,1010.389038 
	C430.985474,1010.389038 433.429199,1010.389038 436.520782,1010.389038 
	C436.520782,1012.620300 436.520782,1014.837646 436.235321,1017.379272 
z"/>
<path fill="#FBFBFB" opacity="1.000000" stroke="none" 
	d="
M569.206055,1009.961792 
	C571.122314,1009.935425 572.592163,1009.935425 574.512634,1009.935425 
	C574.512634,1012.222046 574.512634,1014.232300 574.512634,1016.606689 
	C572.314575,1016.606689 570.095398,1016.606689 566.480286,1016.606689 
	C567.315186,1014.182312 568.037415,1012.085205 569.206055,1009.961792 
z"/>
<path fill="#FBFBFB" opacity="1.000000" stroke="none" 
	d="
M585.618408,1010.106018 
	C586.391174,1012.204651 586.740173,1014.180176 587.170654,1016.617188 
	C584.207397,1016.617188 581.990051,1016.617188 579.351074,1016.617188 
	C579.351074,1014.598267 579.351074,1012.589478 579.351074,1009.982849 
	C581.360291,1009.982849 583.277405,1009.982849 585.618408,1010.106018 
z"/>
<path fill="#AFAEAE" opacity="1.000000" stroke="none" 
	d="
M589.954224,605.817871 
	C595.746826,610.261780 601.170471,614.849426 606.628662,619.395691 
	C627.870667,637.088623 651.780457,649.873413 678.242737,657.759521 
	C682.701355,659.088257 684.129944,660.979492 684.111816,665.687622 
	C683.920410,715.451233 683.994202,765.215820 683.922729,815.428528 
	C681.372498,815.659546 678.894653,815.253967 676.416565,815.252441 
	C618.768555,815.216858 561.120483,815.224976 503.472473,815.225159 
	C501.522858,815.225159 499.573212,815.225220 497.327484,815.225220 
	C497.188629,813.195312 497.002960,811.744385 497.002563,810.293396 
	C496.989014,761.809082 497.038025,713.324585 496.911224,664.840637 
	C496.900879,660.882690 497.911133,658.923401 501.923370,657.760742 
	C535.061035,648.158752 563.719299,630.849426 588.422852,606.863281 
	C588.778381,606.518066 589.206787,606.247803 589.954224,605.817871 
z"/>
<path fill="#AFAEAE" opacity="1.000000" stroke="none" 
	d="
M792.402588,815.758667 
	C791.962891,764.965576 791.973938,714.162842 791.820557,663.360657 
	C791.810059,659.870850 793.373230,658.859375 796.219055,658.019409 
	C818.432190,651.463196 839.203552,641.760742 857.796326,627.940796 
	C867.240662,620.920837 875.805908,612.718262 885.044006,604.921692 
	C910.474426,630.145386 940.159546,647.931274 974.426453,658.005432 
	C977.329651,658.858948 978.919067,659.960938 978.912048,663.403259 
	C978.810669,713.066650 978.840454,762.730286 978.826416,812.393860 
	C978.826233,813.040039 978.665894,813.686218 978.502930,814.916626 
	C976.577759,815.020508 974.665955,815.213379 972.754150,815.213928 
	C915.091003,815.229736 857.427856,815.220581 799.764709,815.248535 
	C797.447754,815.249634 795.130920,815.574890 792.402588,815.758667 
z"/>
<path fill="#B2B1B1" opacity="1.000000" stroke="none" 
	d="
M511.912567,1035.194214 
	C519.072815,1035.250122 522.380371,1037.055176 522.543091,1040.749146 
	C522.716431,1044.686646 519.169067,1046.805298 512.347107,1046.838013 
	C511.683411,1046.841187 510.995331,1046.957275 510.360596,1046.822754 
	C508.381805,1046.403198 504.988129,1046.282715 504.728149,1045.336060 
	C503.973907,1042.590088 503.761414,1039.200928 504.806122,1036.671021 
	C505.302917,1035.467773 509.137604,1035.643066 511.912567,1035.194214 
z"/>
<path fill="#B2B1B1" opacity="1.000000" stroke="none" 
	d="
M504.727539,1027.320557 
	C504.426605,1024.214111 504.426605,1021.434570 504.426605,1018.081421 
	C508.638824,1018.081421 512.673035,1017.591553 516.490601,1018.288269 
	C518.398193,1018.636414 519.910034,1021.152344 521.600830,1022.687805 
	C520.059448,1024.383911 518.728821,1027.208130 516.933350,1027.543335 
	C513.092529,1028.260742 509.011230,1027.690308 504.727539,1027.320557 
z"/>
<path fill="#B2B1B1" opacity="1.000000" stroke="none" 
	d="
M392.966034,1039.896973 
	C392.966095,1032.589355 392.966095,1025.768555 392.966095,1018.273193 
	C398.666595,1018.315491 404.521484,1016.064697 408.934296,1021.063782 
	C412.765900,1025.404297 412.729401,1036.821289 409.250763,1042.020630 
	C405.309418,1047.911621 399.346008,1046.853271 392.965973,1046.604858 
	C392.965973,1044.277954 392.965973,1042.330933 392.966034,1039.896973 
z"/>
<path fill="#B2B1B1" opacity="1.000000" stroke="none" 
	d="
M731.995850,1028.006348 
	C739.080627,1029.998535 742.184021,1041.837280 736.762268,1046.126465 
	C734.930786,1047.575439 729.635315,1047.983154 728.949829,1046.918335 
	C726.884216,1043.709351 725.490540,1039.563110 725.391418,1035.742065 
	C725.301453,1032.276855 726.905884,1028.468262 731.995850,1028.006348 
z"/>
<path fill="#AFAFAF" opacity="1.000000" stroke="none" 
	d="
M958.300415,1041.302124 
	C958.517029,1037.968628 958.283386,1034.810913 959.349731,1032.180176 
	C960.066833,1030.410889 962.578552,1028.374756 964.367554,1028.296753 
	C966.413818,1028.207520 970.055359,1029.834351 970.362854,1031.278076 
	C971.283691,1035.601440 971.474304,1040.294067 970.738770,1044.637329 
	C970.491394,1046.097900 966.667725,1047.723999 964.376221,1047.893921 
	C960.554321,1048.177246 959.287842,1044.868896 958.300415,1041.302124 
z"/>
<path fill="#B2B1B1" opacity="1.000000" stroke="none" 
	d="
M1007.224060,1030.983887 
	C1006.844543,1032.248779 1006.305664,1033.929443 1005.633606,1033.984375 
	C1002.265442,1034.260498 998.862305,1034.110840 995.341675,1034.110840 
	C997.093994,1027.096680 1001.205505,1026.065308 1007.224060,1030.983887 
z"/>
<path fill="#AFAFAF" opacity="1.000000" stroke="none" 
	d="
M463.031921,1031.073975 
	C462.607147,1032.317993 462.058807,1033.932007 461.382599,1033.987427 
	C458.096283,1034.257080 454.775726,1034.109375 451.467255,1034.109375 
	C451.176575,1033.705566 450.885925,1033.301636 450.595245,1032.897827 
	C451.991364,1031.374146 453.332275,1028.655640 454.795654,1028.588013 
	C457.441711,1028.465698 460.160858,1029.926025 463.031921,1031.073975 
z"/>
<path fill="#B2B1B1" opacity="1.000000" stroke="none" 
	d="
M675.250000,1030.342529 
	C680.828003,1026.315430 685.108582,1027.710449 686.592590,1034.106201 
	C683.195435,1034.106201 679.906433,1034.105225 676.617432,1034.106567 
	C673.616394,1034.107910 673.684998,1032.672729 675.250000,1030.342529 
z"/>
<path fill="#AFAFAF" opacity="1.000000" stroke="none" 
	d="
M932.365723,1028.278442 
	C934.225769,1029.896851 935.711426,1031.393799 938.057983,1033.758057 
	C932.376099,1033.758057 928.338867,1033.758057 923.974976,1033.758057 
	C924.888367,1028.749512 927.803894,1027.520874 932.365723,1028.278442 
z"/>
<path fill="#B2B1B1" opacity="1.000000" stroke="none" 
	d="
M762.573059,1030.916504 
	C767.914246,1026.224487 772.090698,1027.222046 774.098877,1034.053955 
	C770.507935,1034.053955 767.111877,1034.175049 763.742615,1033.928589 
	C763.211914,1033.889771 762.802917,1032.186646 762.573059,1030.916504 
z"/>
</svg>